<svg width="2184" height="2722" viewBox="0 0 2184 2722" fill="none" xmlns="http://www.w3.org/2000/svg">
<path d="M1103.96 475.685C1115.08 97.059 868.075 -14.6161 743.411 1.48928C503.703 32.4184 337.724 237.556 224.943 289.153C208.74 296.565 198.557 313.975 208.507 328.757C244.146 381.704 360.629 484.353 718.79 444.271C887.022 425.443 1008.27 324.759 1032.39 455.196C1062.49 617.911 885.041 1075.12 885.041 1075.12L1085.18 1416.11L1103.96 475.685Z" fill="#239314"/>
<path d="M1090.09 757.946C1079.31 379.32 1366.73 353.319 1476.73 406.616C1566.82 450.243 1667.09 542.271 1750.8 564.447C1768.74 569.201 1781.85 585.631 1771.95 601.337C1743.46 646.567 1655.44 721.967 1387.13 705.479C1233.3 696.015 1204.63 615.82 1159.67 737.458C1102.33 892.534 1221.23 1163.74 1221.23 1163.74L1085.18 1416.11L1090.09 757.946Z" fill="#3EC62C"/>
<path d="M205.115 1695.94C181.888 1531.46 200.503 1317.18 318.995 1174.02C389.307 1089.08 559.858 910.902 639.324 828.576C661.352 805.755 698.491 808.336 717.34 833.846L823.318 977.276L1085.2 1360.68V2483.91C1085.2 2483.91 312.658 2457.28 205.115 1695.94Z" fill="#FF561F"/>
<path d="M1966.44 1695.93C1989.66 1531.46 1971.05 1317.17 1852.56 1174.02C1782.25 1089.08 1611.73 910.929 1532.25 828.592C1510.22 805.763 1473.06 808.355 1454.22 833.884L1348.33 977.359L1085.63 1360.67L1086.36 2483.9C1086.36 2483.9 1858.89 2457.27 1966.44 1695.93Z" fill="#D64222"/>
</svg>
